<svg xmlns="http://www.w3.org/2000/svg" viewBox="0 0 1440 320"><path fill="#B8FFF9" fill-opacity="1" d="M0,160L26.7,149.3C53.3,139,107,117,160,117.3C213.3,117,267,139,320,170.7C373.3,203,427,245,480,229.3C533.3,213,587,139,640,112C693.3,85,747,107,800,133.3C853.3,160,907,192,960,197.3C1013.3,203,1067,181,1120,144C1173.3,107,1227,53,1280,53.3C1333.3,53,1387,107,1413,133.3L1440,160L1440,320L1413.3,320C1386.7,320,1333,320,1280,320C1226.7,320,1173,320,1120,320C1066.7,320,1013,320,960,320C906.7,320,853,320,800,320C746.7,320,693,320,640,320C586.7,320,533,320,480,320C426.7,320,373,320,320,320C266.7,320,213,320,160,320C106.7,320,53,320,27,320L0,320Z"></path></svg>